<?xml version="1.0" standalone="no"?>
<!DOCTYPE svg PUBLIC "-//W3C//DTD SVG 20010904//EN"
 "http://www.w3.org/TR/2001/REC-SVG-20010904/DTD/svg10.dtd">
<svg version="1.0" xmlns="http://www.w3.org/2000/svg"
 width="3508.000000pt" height="2481.000000pt" viewBox="0 0 3508.000000 2481.000000"
 preserveAspectRatio="xMidYMid meet">

<g transform="translate(0.000000,2481.000000) scale(0.100000,-0.100000)"
fill="#000000" stroke="none">
<path d="M14435 16859 c-1356 -142 -2545 -869 -3287 -2009 -369 -567 -596
-1197 -683 -1900 -22 -174 -31 -647 -16 -835 84 -1061 510 -2005 1246 -2764
684 -705 1574 -1160 2546 -1301 109 -16 353 -38 362 -33 4 2 7 175 7 383 l0
379 -42 5 c-24 3 -88 11 -143 17 -221 24 -519 93 -755 175 -848 295 -1559 891
-2000 1679 -508 905 -605 1994 -266 2980 456 1329 1651 2293 3036 2451 80 9
151 18 158 20 9 3 12 88 12 384 l0 380 -47 -1 c-27 -1 -84 -5 -128 -10z"/>
<path d="M14530 14704 c-545 -41 -1044 -263 -1429 -638 -197 -192 -332 -378
-456 -628 -354 -712 -301 -1568 139 -2238 223 -339 531 -611 899 -790 707
-347 1555 -299 2212 125 793 510 1184 1436 999 2364 -94 472 -363 933 -727
1247 -346 298 -739 477 -1182 539 -106 15 -362 26 -455 19z m302 -755 c204
-22 434 -97 605 -197 237 -139 468 -383 589 -624 203 -404 219 -857 44 -1276
-163 -389 -515 -715 -915 -846 -156 -51 -251 -67 -430 -73 -145 -4 -188 -2
-294 16 -878 150 -1439 1006 -1221 1867 68 272 199 496 409 704 324 320 766
477 1213 429z"/>
<path d="M20475 13061 c-279 -81 -440 -360 -405 -699 18 -166 67 -279 165
-377 73 -72 138 -109 241 -135 184 -47 365 -8 492 107 l53 48 -72 87 -72 87
-35 -31 c-82 -71 -194 -96 -296 -66 -61 19 -138 99 -165 173 -60 163 -41 364
47 480 94 125 258 147 384 51 l45 -35 71 87 c67 83 70 88 54 106 -32 36 -136
96 -200 116 -82 25 -222 26 -307 1z"/>
<path d="M18310 12954 c-119 -32 -239 -120 -309 -227 -57 -88 -82 -165 -89
-269 -10 -171 43 -313 158 -428 112 -112 234 -162 394 -161 243 0 446 147 527
381 33 95 32 248 -3 346 -60 170 -196 302 -367 354 -77 24 -229 26 -311 4z"/>
<path d="M21435 12773 c-150 -54 -260 -174 -294 -324 -18 -76 -13 -229 9 -301
85 -277 387 -400 641 -262 148 81 229 231 229 424 0 208 -91 365 -258 443 -60
28 -78 32 -172 34 -81 3 -116 -1 -155 -14z m225 -229 c61 -52 75 -95 75 -229
0 -108 -2 -125 -25 -169 -34 -68 -68 -91 -135 -91 -65 0 -99 22 -135 86 -20
37 -25 61 -28 145 -8 192 46 284 164 284 42 0 59 -5 84 -26z"/>
<path d="M22247 11980 c-33 -26 -43 -70 -23 -108 39 -75 146 -43 146 43 0 25
-8 44 -25 60 -29 30 -64 32 -98 5z"/>
<path d="M22255 11355 c-86 -30 -132 -121 -123 -244 10 -134 86 -209 204 -199
33 3 65 13 82 25 25 19 27 26 30 107 l3 86 -71 0 c-40 0 -70 -4 -70 -10 0 -5
25 -10 55 -10 l55 0 0 -70 c0 -67 -1 -70 -30 -85 -43 -22 -111 -19 -151 8 -90
60 -105 234 -28 322 52 59 135 70 192 25 17 -14 28 -17 32 -10 11 17 -24 49
-64 60 -47 13 -68 12 -116 -5z"/>
<path d="M20100 11148 c-41 -116 -77 -215 -79 -221 -2 -5 5 -7 14 -5 12 2 26
27 43 76 l26 72 86 0 86 0 24 -75 c18 -59 28 -75 43 -75 10 0 17 4 15 8 -1 5
-36 104 -77 220 -55 158 -78 212 -91 212 -12 0 -35 -54 -90 -212z m128 64 c18
-54 32 -103 32 -110 0 -8 -22 -12 -70 -12 -48 0 -70 4 -70 12 0 19 64 208 70
208 3 0 20 -44 38 -98z"/>
<path d="M20500 11141 l0 -221 78 0 c102 0 156 26 192 90 21 38 25 58 25 130
0 74 -3 91 -27 131 -36 62 -80 82 -185 87 l-83 4 0 -221z m174 175 c71 -29
107 -128 86 -230 -19 -94 -64 -132 -170 -143 l-60 -6 0 197 0 196 55 0 c31 0
70 -6 89 -14z"/>
<path d="M20970 11141 l0 -221 78 0 c102 0 156 26 192 90 21 38 25 58 25 130
0 74 -3 91 -27 131 -36 62 -80 82 -185 87 l-83 4 0 -221z m174 175 c71 -30
109 -130 87 -230 -21 -94 -66 -132 -171 -143 l-60 -6 0 197 0 196 55 0 c31 0
70 -6 89 -14z"/>
<path d="M21440 11140 c0 -189 2 -220 15 -220 13 0 15 31 15 220 0 189 -2 220
-15 220 -13 0 -15 -31 -15 -220z"/>
<path d="M21660 11141 c0 -190 2 -221 15 -221 13 0 15 29 15 198 l0 197 117
-197 c83 -140 122 -198 135 -198 17 0 18 15 18 220 0 189 -2 220 -15 220 -13
0 -15 -29 -15 -197 l0 -197 -114 195 c-83 141 -120 195 -135 197 -21 3 -21 0
-21 -217z"/>
<path d="M22770 11353 c0 -5 31 -102 68 -218 56 -173 72 -211 88 -213 21 -3
21 -2 120 306 36 112 40 132 26 132 -13 0 -31 -44 -76 -193 -32 -105 -62 -195
-66 -200 -3 -4 -14 19 -24 50 -88 286 -108 343 -122 343 -7 0 -14 -3 -14 -7z"/>
<path d="M23296 11318 c-39 -105 -136 -384 -136 -390 0 -5 6 -8 14 -8 9 0 24
28 39 73 l24 72 88 0 88 0 25 -72 c17 -54 28 -73 41 -73 16 0 7 31 -59 218
-52 146 -82 218 -92 220 -11 2 -21 -11 -32 -40z m69 -108 c19 -57 35 -108 35
-112 0 -4 -34 -8 -76 -8 -57 0 -75 3 -71 13 2 6 19 58 38 114 18 56 34 101 36
99 2 -2 19 -50 38 -106z"/>
<path d="M23630 11140 l0 -220 120 0 c148 0 162 18 18 22 l-103 3 -3 208 c-2
175 -5 207 -17 207 -13 0 -15 -32 -15 -220z"/>
<path d="M23991 11187 c4 -150 7 -176 24 -207 56 -96 208 -93 255 4 18 37 20
62 20 209 0 142 -2 167 -15 167 -13 0 -15 -25 -15 -162 0 -135 -3 -169 -18
-198 -32 -65 -118 -81 -172 -32 -39 35 -50 94 -50 263 0 112 -2 129 -16 129
-15 0 -16 -19 -13 -173z"/>
<path d="M24490 11140 l0 -220 120 0 c73 0 120 4 120 10 0 6 -42 10 -105 10
l-105 0 0 100 0 100 85 0 c69 0 85 3 85 15 0 12 -16 15 -85 15 l-85 0 0 80 0
80 105 0 c87 0 105 3 105 15 0 13 -20 15 -120 15 l-120 0 0 -220z"/>
</g>
</svg>
