<?xml version="1.0" standalone="no"?>
<!DOCTYPE svg PUBLIC "-//W3C//DTD SVG 20010904//EN"
 "http://www.w3.org/TR/2001/REC-SVG-20010904/DTD/svg10.dtd">
<svg version="1.0" xmlns="http://www.w3.org/2000/svg"
 width="888.000000pt" height="912.000000pt" viewBox="0 0 888.000000 912.000000"
 preserveAspectRatio="xMidYMid meet">

<g transform="translate(0.000000,912.000000) scale(0.100000,-0.100000)"
fill="#000000" stroke="none">
<path d="M4205 8969 c-1356 -142 -2545 -869 -3287 -2009 -369 -567 -596 -1197
-683 -1900 -22 -174 -31 -647 -16 -835 84 -1061 510 -2005 1246 -2764 684
-705 1574 -1160 2546 -1301 109 -16 353 -38 361 -33 5 2 8 175 8 383 l0 379
-42 5 c-24 3 -88 11 -143 17 -221 24 -519 93 -755 175 -848 295 -1559 891
-2000 1679 -508 905 -605 1994 -266 2980 456 1329 1651 2293 3036 2451 80 9
151 18 158 20 9 3 12 88 12 384 l0 380 -47 -1 c-27 -1 -84 -5 -128 -10z"/>
<path d="M4300 6814 c-545 -41 -1044 -263 -1429 -638 -197 -192 -332 -378
-456 -628 -354 -712 -301 -1568 139 -2238 223 -339 531 -611 899 -790 707
-347 1555 -299 2212 125 793 510 1184 1436 999 2364 -94 472 -363 933 -727
1247 -346 298 -739 477 -1182 539 -106 15 -362 26 -455 19z m302 -755 c204
-22 434 -97 605 -197 237 -139 468 -383 589 -624 203 -404 219 -857 44 -1276
-163 -389 -515 -715 -915 -846 -156 -51 -251 -67 -430 -73 -145 -4 -188 -2
-294 16 -878 150 -1439 1006 -1221 1867 68 272 199 496 409 704 324 320 766
477 1213 429z"/>
<path d="M8080 5064 c-119 -32 -239 -120 -309 -227 -57 -88 -82 -165 -89 -269
-10 -171 43 -313 158 -428 112 -112 234 -162 394 -161 243 0 446 147 527 381
33 95 32 248 -3 346 -60 170 -196 302 -367 354 -77 24 -229 26 -311 4z"/>
</g>
</svg>
